<?xml version="1.0" encoding="iso-8859-1"?>
<!-- Generator: Adobe Illustrator 19.0.0, SVG Export Plug-In . SVG Version: 6.00 Build 0)  -->
<svg fill="#fff" version="1.1" id="Capa_1" xmlns="http://www.w3.org/2000/svg" xmlns:xlink="http://www.w3.org/1999/xlink" x="0px" y="0px"
	 viewBox="0 0 512 512" style="enable-background:new 0 0 512 512;" xml:space="preserve">
<g>
	<g>
		<path d="M510.656,431.56l-80-120c-2.448-3.672-7.408-4.672-11.096-2.216c-3.68,2.456-4.672,7.416-2.216,11.096L489.056,428H22.944
			l71.712-107.552c2.456-3.68,1.464-8.64-2.216-11.096c-3.696-2.456-8.656-1.456-11.096,2.216l-80,120
			c-1.632,2.448-1.792,5.608-0.4,8.208C2.336,442.376,5.048,444,8,444h496c2.952,0,5.664-1.632,7.056-4.232
			C512.448,437.168,512.288,434.016,510.656,431.56z"/>
	</g>
</g>
<g>
	<g>
		<path d="M504,428H8c-4.424,0-8,3.576-8,8v32c0,4.424,3.576,8,8,8h496c4.424,0,8-3.576,8-8v-32C512,431.576,508.424,428,504,428z
			 M496,460H16v-16h480V460z"/>
	</g>
</g>
<g>
	<g>
		<path d="M124.184,340.776c-4.032-1.912-8.776-0.2-10.664,3.776l-41.944,88c-1.904,3.992-0.208,8.768,3.776,10.664
			c1.12,0.536,2.288,0.784,3.44,0.784c2.992,0,5.856-1.68,7.224-4.56l41.944-88C129.864,347.448,128.168,342.672,124.184,340.776z"
			/>
	</g>
</g>
<g>
	<g>
		<path d="M174.736,348.312c-4.2-1.208-8.68,1.232-9.888,5.488l-11.472,40c-1.216,4.24,1.24,8.672,5.488,9.888
			c0.728,0.208,1.472,0.312,2.208,0.312c3.472,0,6.68-2.28,7.68-5.8l11.472-40C181.44,353.96,178.984,349.528,174.736,348.312z"/>
	</g>
</g>
<g>
	<g>
		<path d="M440.424,432.56l-15.264-32.016c-1.888-3.976-6.632-5.688-10.664-3.776c-3.984,1.896-5.68,6.672-3.776,10.664
			l15.264,32.016c1.368,2.872,4.232,4.552,7.224,4.552c1.152,0,2.32-0.248,3.44-0.776
			C440.632,441.328,442.328,436.552,440.424,432.56z"/>
	</g>
</g>
<g>
	<g>
		<path d="M409.896,368.52l-26.672-55.96c-1.896-3.976-6.64-5.688-10.664-3.776c-3.984,1.896-5.68,6.672-3.776,10.664l26.672,55.96
			c1.368,2.872,4.232,4.552,7.224,4.552c1.152,0,2.32-0.248,3.44-0.776C410.104,377.288,411.8,372.512,409.896,368.52z"/>
	</g>
</g>
<g>
	<g>
		<path d="M358.624,393.8l-11.472-40c-1.216-4.264-5.68-6.696-9.888-5.488c-4.256,1.216-6.704,5.648-5.488,9.888l11.472,40
			c1.008,3.52,4.2,5.8,7.68,5.8c0.736,0,1.48-0.104,2.208-0.312C357.392,402.472,359.84,398.04,358.624,393.8z"/>
	</g>
</g>
<g>
	<g>
		<path d="M120.752,340H66.664c-4.424,0-8,3.576-8,8s3.576,8,8,8h54.088c4.416,0,8-3.576,8-8S125.176,340,120.752,340z"/>
	</g>
</g>
<g>
	<g>
		<path d="M482.664,396h-64.712c-4.424,0-8,3.576-8,8s3.576,8,8,8h64.712c4.424,0,8-3.576,8-8S487.088,396,482.664,396z"/>
	</g>
</g>
<g>
	<g>
		<path d="M461.336,364h-58.64c-4.424,0-8,3.576-8,8s3.576,8,8,8h58.64c4.424,0,8-3.576,8-8S465.76,364,461.336,364z"/>
	</g>
</g>
<g>
	<g>
		<path d="M240,348h-67.472c-4.424,0-8,3.576-8,8s3.576,8,8,8H240c4.424,0,8-3.576,8-8S244.424,348,240,348z"/>
	</g>
</g>
<g>
	<g>
		<path d="M339.472,348h-66.728c-4.424,0-8,3.576-8,8s3.576,8,8,8h66.728c4.416,0,8-3.576,8-8S343.896,348,339.472,348z"/>
	</g>
</g>
<g>
	<g>
		<path d="M350.936,388H161.064c-4.424,0-8,3.576-8,8s3.576,8,8,8h189.872c4.424,0,8-3.576,8-8S355.36,388,350.936,388z"/>
	</g>
</g>
<g>
	<g>
		<path d="M256,36c-70.576,0-128,57.424-128,128c0,105.272,117.72,209.624,122.728,214.016c1.504,1.32,3.392,1.984,5.272,1.984
			s3.768-0.664,5.272-1.984C266.28,373.624,384,269.272,384,164C384,93.424,326.576,36,256,36z M256,361.128
			C233.152,339.552,144,249.872,144,164c0-61.76,50.24-112,112-112s112,50.24,112,112C368,249.872,278.848,339.56,256,361.128z"/>
	</g>
</g>
<g>
	<g>
		<path d="M203.416,308H88c-4.424,0-8,3.576-8,8s3.576,8,8,8h115.416c4.416,0,8-3.576,8-8S207.84,308,203.416,308z"/>
	</g>
</g>
<g>
	<g>
		<path d="M424,308H308.576c-4.424,0-8,3.576-8,8s3.576,8,8,8H424c4.424,0,8-3.576,8-8S428.424,308,424,308z"/>
	</g>
</g>
<g>
	<g>
		<path d="M304,212h-96c-4.424,0-8,3.584-8,8s3.576,8,8,8h96c4.424,0,8-3.584,8-8S308.424,212,304,212z"/>
	</g>
</g>
<g>
	<g>
		<path d="M216,116c-4.424,0-8,3.584-8,8v96c0,4.416,3.576,8,8,8s8-3.584,8-8v-96C224,119.584,220.424,116,216,116z"/>
	</g>
</g>
<g>
	<g>
		<path d="M296,144.568c-4.424,0-8,3.584-8,8V220c0,4.416,3.576,8,8,8s8-3.584,8-8v-67.432C304,148.152,300.424,144.568,296,144.568
			z"/>
	</g>
</g>
<g>
	<g>
		<path d="M262.512,119.352c-2.576-3.6-7.576-4.424-11.16-1.864l-56,40c-3.592,2.568-4.424,7.568-1.856,11.16
			c1.56,2.184,4.008,3.352,6.512,3.352c1.608,0,3.232-0.488,4.648-1.488l56-40C264.248,127.944,265.08,122.944,262.512,119.352z"/>
	</g>
</g>
<g>
	<g>
		<path d="M316.656,157.488l-56-40c-3.592-2.56-8.592-1.728-11.16,1.864c-2.576,3.592-1.736,8.592,1.856,11.16l56,40
			c1.408,1,3.032,1.488,4.64,1.488c2.504,0,4.952-1.168,6.52-3.352C321.088,165.056,320.248,160.056,316.656,157.488z"/>
	</g>
</g>
<g>
	<g>
		<path d="M256,188c-4.424,0-8,3.584-8,8v24c0,4.416,3.576,8,8,8s8-3.584,8-8v-24C264,191.584,260.424,188,256,188z"/>
	</g>
</g>
<g>
</g>
<g>
</g>
<g>
</g>
<g>
</g>
<g>
</g>
<g>
</g>
<g>
</g>
<g>
</g>
<g>
</g>
<g>
</g>
<g>
</g>
<g>
</g>
<g>
</g>
<g>
</g>
<g>
</g>
</svg>
