<svg id="Icons" height="512" viewBox="0 0 74 74" width="512" xmlns="http://www.w3.org/2000/svg"><path d="m71 70h-8a1 1 0 0 1 -1-1v-7h-50v7a1 1 0 0 1 -1 1h-8a1 1 0 0 1 -1-1v-22a9.01 9.01 0 0 1 9-9h52a9.01 9.01 0 0 1 9 9v22a1 1 0 0 1 -1 1zm-7-2h6v-21a7.008 7.008 0 0 0 -7-7h-52a7.008 7.008 0 0 0 -7 7v21h6v-7a1 1 0 0 1 1-1h52a1 1 0 0 1 1 1z"/><path d="m66 50h5v2h-5z"/><path d="m3 50h59v2h-59z"/><path d="m8 40.079h-2v-20.079a9.01 9.01 0 0 1 9-9h2.637c.539-1.949 2.661-3.681 6.109-4.953l.691 1.877c-3.091 1.14-4.937 2.663-4.937 4.076a1 1 0 0 1 -1 1h-3.5a7.008 7.008 0 0 0 -7 7z"/><path d="m68 40.079h-2v-20.079a7.008 7.008 0 0 0 -7-7h-3.5a1 1 0 0 1 -1-1c0-2.838-7.187-6-17.5-6a43.277 43.277 0 0 0 -8.851.874l-.417-1.956a45.3 45.3 0 0 1 9.268-.918c8.828 0 18.173 2.445 19.371 7h2.629a9.01 9.01 0 0 1 9 9z"/><path d="m63 39h-2v-6.5a1.5 1.5 0 0 0 -1.5-1.5h-16a1.5 1.5 0 0 0 -1.5 1.5v6.5h-2v-6.5a3.5 3.5 0 0 1 3.5-3.5h16a3.5 3.5 0 0 1 3.5 3.5z"/><path d="m34 39h-2v-6.5a1.5 1.5 0 0 0 -1.5-1.5h-16a1.5 1.5 0 0 0 -1.5 1.5v6.5h-2v-6.5a3.5 3.5 0 0 1 3.5-3.5h16a3.5 3.5 0 0 1 3.5 3.5z"/></svg>