<svg id="Icons" height="512" viewBox="0 0 74 74" width="512" xmlns="http://www.w3.org/2000/svg"><path d="m55 72h-36a1 1 0 0 1 -1-1v-68a1 1 0 0 1 1-1h36a1 1 0 0 1 1 1v68a1 1 0 0 1 -1 1zm-35-2h34v-66h-34z"/><path d="m44 72h-14a1 1 0 0 1 -1-1v-16a1 1 0 0 1 1-1h14a1 1 0 0 1 1 1v16a1 1 0 0 1 -1 1zm-13-2h12v-14h-12z"/><path d="m46.5 9h4.5v2h-4.5z"/><path d="m23 9h19.5v2h-19.5z"/><path d="m23 18h28v2h-28z"/><path d="m23 27h28v2h-28z"/><path d="m23 36h28v2h-28z"/><path d="m23 45h28v2h-28z"/><path d="m71 72h-16a1 1 0 0 1 -1-1v-46a1 1 0 0 1 1-1h16a1 1 0 0 1 1 1v15.38h-2v-14.38h-14v44h14v-25.62h2v26.62a1 1 0 0 1 -1 1z"/><path d="m58 35h10v2h-10z"/><path d="m58 47h10v2h-10z"/><path d="m58 59h10v2h-10z"/><path d="m19 72h-16a1 1 0 0 1 -1-1v-46a1 1 0 0 1 1-1h16a1 1 0 0 1 1 1v46a1 1 0 0 1 -1 1zm-15-2h14v-44h-14z"/><path d="m6 35h10v2h-10z"/><path d="m6 47h10v2h-10z"/><path d="m6 59h10v2h-10z"/></svg>