<svg id="Icons" height="512" viewBox="0 0 74 74" width="512" xmlns="http://www.w3.org/2000/svg"><path d="m24 34a16 16 0 1 1 16-16 16.018 16.018 0 0 1 -16 16zm0-30a14 14 0 1 0 14 14 14.016 14.016 0 0 0 -14-14z"/><path d="m24 21a6 6 0 1 1 6-6 6.007 6.007 0 0 1 -6 6zm0-10a4 4 0 1 0 4 4 4 4 0 0 0 -4-4z"/><path d="m24 72a1 1 0 0 1 -.707-.293l-4-4a1 1 0 0 1 -.293-.707v-22h2v21.586l3 3 3-3v-2.586h-1a1 1 0 0 1 -1-1v-4a1 1 0 0 1 1-1h1v-2h-1a1 1 0 0 1 -1-1v-4a1 1 0 0 1 1-1h1v-17.54h2v18.54a1 1 0 0 1 -1 1h-1v2h1a1 1 0 0 1 1 1v4a1 1 0 0 1 -1 1h-1v2h1a1 1 0 0 1 1 1v4a1 1 0 0 1 -.293.707l-4 4a1 1 0 0 1 -.707.293z"/><path d="m19 32.46h2v8.54h-2z"/><path d="m65 72h-30a1 1 0 0 1 -1-1v-35a1 1 0 0 1 .345-.756l15-13a1 1 0 0 1 1.31 0l15 13a1 1 0 0 1 .345.756v7h-2v-6.543l-14-12.134-14 12.134v33.543h28v-23h2v24a1 1 0 0 1 -1 1z"/><path d="m50 42a5 5 0 1 1 5-5 5.006 5.006 0 0 1 -5 5zm0-8a3 3 0 1 0 3 3 3 3 0 0 0 -3-3z"/><path d="m47.151 39.428c-3.99 0-10.095-3.532-15.038-7.9l1.325-1.5c7.437 6.572 13.933 8.433 15.317 6.872.529-.6.466-1.875-.173-3.5l1.862-.729c1.2 3.059.558 4.711-.191 5.558a3.95 3.95 0 0 1 -3.102 1.199z"/><path d="m44.836 27.442a43.71 43.71 0 0 0 -4.771-4.907c-7.437-6.578-13.933-8.437-15.316-6.873-.574.648-.455 2.061.326 3.875l-1.837.791c-1.43-3.323-.782-5.092.013-5.991 3.014-3.4 11.595.911 18.139 6.7a45.705 45.705 0 0 1 4.99 5.133z"/></svg>