<svg width="257" height="59" viewBox="0 0 257 59" fill="none" xmlns="http://www.w3.org/2000/svg">
<path fill-rule="evenodd" clip-rule="evenodd" d="M240.073 8.52337C240.04 8.5649 240.007 8.60612 239.973 8.64734C239.424 9.32036 238.715 10.0591 237.961 10.7432C236.82 9.29825 235.564 7.39033 235.564 5.22431C235.564 2.34346 237.916 0 240.808 0C243.701 0 246.055 2.34346 246.055 5.22431C246.055 7.51878 244.632 9.55724 243.392 11.0765C242.243 12.4844 241.082 13.5535 240.26 14.2382C239.804 13.3623 239.279 12.4955 238.696 11.6575C239.299 11.1181 240.144 10.3022 240.936 9.33231C242.133 7.86529 242.969 6.17633 242.969 5.22401C242.969 3.62556 241.68 2.88085 240.808 2.88085C239.937 2.88085 238.649 3.62526 238.649 5.22401C238.649 6.00039 239.193 7.2577 240.073 8.52337ZM231.155 17.1518H231.154C230.367 17.1518 229.62 17.0458 228.933 16.8385C227.48 16.3981 226.301 15.4835 225.615 14.2638C224.96 13.1012 224.821 11.7539 225.233 10.5671C225.913 8.61261 228.016 7.24776 230.347 7.24776C230.96 7.24776 231.575 7.34006 232.176 7.52198C234.513 8.23114 236.149 10.1247 237.314 11.6954C238.173 12.8532 238.968 14.1804 239.566 15.4536C238.534 15.588 237.489 15.7864 236.455 16.0448C235.961 15.0909 235.369 14.1341 234.779 13.3375C233.654 11.8206 232.191 10.5558 231.222 10.2618C230.916 10.1692 230.611 10.122 230.316 10.122C229.211 10.122 228.398 10.7936 228.168 11.4573C227.899 12.2307 228.26 13.6048 229.887 14.0983C230.669 14.3355 232.157 14.2363 233.688 13.8534L233.729 13.9066C233.748 13.9308 233.766 13.9552 233.784 13.9797C234.43 14.8502 234.951 15.7577 235.296 16.4143C233.674 16.9173 232.354 17.1518 231.155 17.1518ZM240.231 19.3896C240.287 18.3954 240.408 17.4061 240.591 16.4436C239.494 16.5464 237.882 16.7737 236.067 17.2827C234.107 17.8318 231.672 18.6998 230.228 20.5564C228.415 22.8867 228.844 26.0746 231.184 27.6626C232.031 28.2362 233.055 28.54 234.146 28.54C235.95 28.54 237.615 27.7286 238.715 26.3142C240.078 24.5625 240.264 22.329 240.25 20.5331C239.474 20.637 238.39 20.819 237.303 21.1236C237.25 21.1389 237.197 21.1541 237.144 21.1697C237.059 22.6767 236.708 23.9917 236.219 24.6211C235.512 25.5298 234.636 25.6654 234.177 25.6654C233.74 25.6654 233.31 25.5438 232.998 25.332C232.596 25.0596 232.302 24.5894 232.21 24.0735C232.134 23.6413 232.161 22.9736 232.724 22.2498C233.323 21.4797 235.063 20.5725 236.955 20.0426C238.206 19.691 239.403 19.4947 240.231 19.3896ZM245.666 20.2058C245.692 19.1486 245.841 18.1282 245.975 17.4065C247.809 17.9489 250.026 18.8033 251.39 20.5559C252.288 21.7098 252.666 23.0968 252.455 24.4601C252.253 25.7607 251.517 26.927 250.436 27.6603C249.588 28.2341 248.564 28.5379 247.471 28.5379H247.47C245.668 28.5374 244.002 27.7266 242.902 26.3131C241.458 24.4568 241.326 22.0268 241.373 20.117C241.407 18.7083 241.6 17.1982 241.916 15.84C242.837 16.2991 243.807 16.7122 244.805 17.0704C244.657 17.8381 244.487 18.9619 244.457 20.1801C244.412 22.0232 244.799 23.8492 245.398 24.6199C246.105 25.528 246.981 25.6634 247.44 25.6634C247.878 25.6634 248.309 25.5418 248.622 25.3294C249.326 24.8511 249.9 23.5419 248.893 22.249C248.404 21.6205 247.173 20.9021 245.664 20.3611C245.664 20.3091 245.665 20.2577 245.666 20.2058ZM256.383 10.5641C255.704 8.61102 253.602 7.24707 251.271 7.24707C250.658 7.24707 250.042 7.33937 249.441 7.5213C247.235 8.19073 245.68 9.89552 244.561 11.3557C245.489 11.8133 246.461 12.2154 247.317 12.4956C247.37 12.5126 247.421 12.5293 247.473 12.5455C248.491 11.3724 249.603 10.5013 250.395 10.2612C250.702 10.168 251.006 10.1211 251.302 10.1211C252.407 10.1211 253.218 10.7917 253.449 11.4542C253.718 12.2285 253.358 13.6041 251.73 14.0979C251.443 14.1848 251.071 14.2288 250.624 14.2288C249.564 14.2288 248.214 13.9859 246.917 13.5614C245.684 13.1587 244.593 12.6602 243.857 12.2916C243.184 13.0673 242.464 13.8013 241.712 14.4776C242.663 14.9965 244.11 15.6967 245.899 16.2816C247.042 16.655 248.758 17.152 250.46 17.1523C251.248 17.1523 251.997 17.0466 252.684 16.8378C255.617 15.9476 257.277 13.1336 256.383 10.5641ZM9.67981 35H14.9064L9.59778 25.543L15.0001 17.8672H9.93762L6.33997 23.1172C5.62903 24.1172 5.15637 24.8477 4.922 25.3086V17.8672H0.269653V35H4.922V29.2695L6.29309 28.4492L9.67981 35ZM28.6918 35H34.7622V17.8672H30.6372V25.6133C30.6372 26.6602 30.6918 28.0469 30.8012 29.7734H30.7309L24.4965 17.8672H18.4497V35H22.5512V27.2773C22.5512 26.2773 22.477 24.8281 22.3286 22.9297H22.434L28.6918 35ZM40.1453 17.8672V35H44.7976V17.8672H40.1453ZM64.4659 24.9688H57.0714V28.543H60.13V31.2266C59.5518 31.3594 58.919 31.4258 58.2315 31.4258C56.9737 31.4258 56.0089 31.0078 55.337 30.1719C54.6729 29.3281 54.3409 28.1055 54.3409 26.5039C54.3409 24.8711 54.7081 23.6172 55.4425 22.7422C56.1847 21.8594 57.2315 21.418 58.5831 21.418C60.0597 21.418 61.4151 21.7227 62.6495 22.332L64.1143 18.6992C63.4034 18.3867 62.5675 18.1289 61.6065 17.9258C60.6534 17.7227 59.6378 17.6211 58.5597 17.6211C55.7159 17.6211 53.505 18.3906 51.9268 19.9297C50.3487 21.4688 49.5597 23.6211 49.5597 26.3867C49.5597 29.2227 50.2784 31.4062 51.7159 32.9375C53.1612 34.4688 55.2042 35.2344 57.8448 35.2344C60.2511 35.2344 62.4581 34.8906 64.4659 34.2031V24.9688ZM79.6693 35H84.3217V17.8672H79.6693V24.2188H74.2904V17.8672H69.6381V35H74.2904V28.0156H79.6693V35ZM92.6462 35H97.2751V21.6523H101.447V17.8672H88.4626V21.6523H92.6462V35ZM115.971 32.6328C116.51 31.8047 116.779 30.8594 116.779 29.7969C116.779 28.6406 116.49 27.6836 115.912 26.9258C115.342 26.1602 114.318 25.4453 112.842 24.7812C111.303 24.0781 110.357 23.5938 110.006 23.3281C109.662 23.0625 109.49 22.7617 109.49 22.4258C109.49 22.1133 109.627 21.8516 109.9 21.6406C110.174 21.4297 110.611 21.3242 111.213 21.3242C112.377 21.3242 113.76 21.6914 115.361 22.4258L116.779 18.8516C114.936 18.0312 113.127 17.6211 111.354 17.6211C109.346 17.6211 107.768 18.0625 106.619 18.9453C105.471 19.8281 104.897 21.0586 104.897 22.6367C104.897 23.4805 105.029 24.2109 105.295 24.8281C105.568 25.4453 105.982 25.9922 106.537 26.4688C107.1 26.9453 107.939 27.4375 109.057 27.9453C110.291 28.5 111.049 28.8672 111.33 29.0469C111.619 29.2266 111.826 29.4062 111.951 29.5859C112.084 29.7578 112.15 29.9609 112.15 30.1953C112.15 30.5703 111.99 30.8789 111.67 31.1211C111.35 31.3555 110.846 31.4727 110.158 31.4727C109.361 31.4727 108.486 31.3477 107.533 31.0977C106.58 30.8398 105.662 30.4844 104.779 30.0312V34.1562C105.615 34.5547 106.42 34.8359 107.193 35C107.967 35.1562 108.924 35.2344 110.064 35.2344C111.432 35.2344 112.623 35.0078 113.639 34.5547C114.654 34.0938 115.432 33.4531 115.971 32.6328ZM127.084 17.8672H121.108V35H127.776C129.791 35 131.381 34.5547 132.545 33.6641C133.717 32.7656 134.303 31.5391 134.303 29.9844C134.303 28.9375 134.065 28.0859 133.588 27.4297C133.112 26.7734 132.342 26.3047 131.28 26.0234V25.9062C132.084 25.7109 132.733 25.2734 133.225 24.5938C133.717 23.9141 133.963 23.0938 133.963 22.1328C133.963 20.6719 133.397 19.5977 132.264 18.9102C131.139 18.2148 129.412 17.8672 127.084 17.8672ZM127.131 24.4414H125.737V21.3711H127.037C128.491 21.3711 129.217 21.8516 129.217 22.8125C129.217 23.3516 129.034 23.7578 128.666 24.0312C128.307 24.3047 127.795 24.4414 127.131 24.4414ZM125.737 31.4258V27.8281H127.272C128.006 27.8281 128.565 27.9805 128.948 28.2852C129.338 28.5898 129.534 29.0273 129.534 29.5977C129.534 30.8164 128.811 31.4258 127.366 31.4258H125.737ZM143.589 35V28.7656H144.76L148.393 35H153.643L148.651 27.5352C150.589 26.4492 151.557 24.9141 151.557 22.9297C151.557 19.5547 149.229 17.8672 144.573 17.8672H138.96V35H143.589ZM144.456 25.2852H143.589V21.3711H144.503C146.089 21.3711 146.882 21.9609 146.882 23.1406C146.882 24.5703 146.073 25.2852 144.456 25.2852ZM156.882 17.8672V35H161.534V17.8672H156.882ZM179.105 32.6797C180.683 31.1328 181.472 28.9297 181.472 26.0703C181.472 23.4141 180.722 21.3828 179.222 19.9766C177.73 18.5703 175.609 17.8672 172.859 17.8672H166.929V35H172.472C175.324 35 177.535 34.2266 179.105 32.6797ZM175.73 22.7422C176.355 23.5 176.667 24.6641 176.667 26.2344C176.667 27.9141 176.339 29.1641 175.683 29.9844C175.027 30.7969 173.995 31.2031 172.589 31.2031H171.558V21.6055H172.906C174.171 21.6055 175.113 21.9844 175.73 22.7422ZM200.507 24.9688H193.113V28.543H196.172V31.2266C195.593 31.3594 194.961 31.4258 194.273 31.4258C193.015 31.4258 192.05 31.0078 191.379 30.1719C190.714 29.3281 190.382 28.1055 190.382 26.5039C190.382 24.8711 190.75 23.6172 191.484 22.7422C192.226 21.8594 193.273 21.418 194.625 21.418C196.101 21.418 197.457 21.7227 198.691 22.332L200.156 18.6992C199.445 18.3867 198.609 18.1289 197.648 17.9258C196.695 17.7227 195.679 17.6211 194.601 17.6211C191.757 17.6211 189.547 18.3906 187.968 19.9297C186.39 21.4688 185.601 23.6211 185.601 26.3867C185.601 29.2227 186.32 31.4062 187.757 32.9375C189.203 34.4688 191.246 35.2344 193.886 35.2344C196.293 35.2344 198.5 34.8906 200.507 34.2031V24.9688ZM205.68 35H215.852V31.2266H210.309V27.9922H215.441V24.2773H210.309V21.582H215.852V17.8672H205.68V35ZM156.542 44.834V58H164.206V56.8047H157.948V44.834H156.542ZM167.435 44.834V58H168.841V44.834H167.435ZM173.423 44.834H171.876L176.306 58H178.029L182.458 44.834H180.911L178.011 53.8867C177.917 54.2031 177.782 54.6484 177.607 55.2227C177.431 55.7852 177.29 56.248 177.185 56.6113H177.115C177.009 56.2598 176.868 55.7969 176.693 55.2227C176.517 54.6367 176.382 54.1914 176.288 53.8867L173.423 44.834ZM185.494 44.834V58H186.9V44.834H185.494ZM191.799 44.834V58H193.205V50.5469C193.205 49.2461 193.146 48.0098 193.029 46.8379H193.099L194.664 49.5449L199.533 58H201.15V44.834H199.744V52.2871C199.744 53.6816 199.814 54.9238 199.955 56.0137H199.849L198.267 53.2363L193.416 44.834H191.799ZM206.682 46.4512C205.662 47.7285 205.152 49.3867 205.152 51.4258C205.152 53.5586 205.668 55.2402 206.699 56.4707C207.742 57.7012 209.102 58.3164 210.777 58.3164C212.664 58.3164 213.953 57.5664 214.645 56.0664L214.75 58H215.77V50.8984H210.672V52.0938H214.398V53.3242C214.398 54.3438 214.088 55.2285 213.467 55.9785C212.846 56.7285 211.961 57.1035 210.812 57.1035C209.547 57.1035 208.527 56.6055 207.754 55.6094C206.98 54.6016 206.594 53.207 206.594 51.4258C206.594 49.7148 206.969 48.3379 207.719 47.2949C208.48 46.2402 209.535 45.7129 210.883 45.7129C212.184 45.7129 213.25 46.3867 214.082 47.7344L215.277 47.3125C215.125 46.9961 214.932 46.6973 214.697 46.416C214.475 46.123 214.187 45.8242 213.836 45.5195C213.496 45.2148 213.068 44.9746 212.553 44.7988C212.037 44.6113 211.48 44.5176 210.883 44.5176C209.113 44.5176 207.713 45.1621 206.682 46.4512Z" fill="black"/>
</svg>
