<svg fill="#fff" id="Capa_1" enable-background="new 0 0 512 512" height="512" viewBox="0 0 512 512" width="512" xmlns="http://www.w3.org/2000/svg"><g><path d="m95.867 155.124c3.425 0 6.657-1.75 8.513-4.708 7.881-12.561 11.469-24.583 10.968-36.754-.463-11.262-9.697-20.083-21.023-20.083h-10.61c-11.602 0-21.041 9.439-21.041 21.041v.567c0 11.214 9.064 20.352 20.25 20.472l3.196 11.982c1.188 4.453 5.218 7.483 9.747 7.483zm-18.193-39.937v-.567c0-3.331 2.71-6.041 6.041-6.041h10.61c3.253 0 5.904 2.503 6.036 5.7.23 5.602-.772 11.269-3.047 17.127-1.773-6.336-7.573-10.746-14.167-10.746-3.018 0-5.473-2.455-5.473-5.473z"/><path d="m154.437 93.579h-10.61c-11.602 0-21.041 9.439-21.041 21.041v.567c0 11.214 9.064 20.352 20.25 20.472l3.196 11.982c1.187 4.452 5.217 7.482 9.746 7.482 3.425 0 6.657-1.75 8.513-4.708 7.881-12.561 11.469-24.583 10.968-36.754-.462-11.261-9.697-20.082-21.022-20.082zm2.988 37.827c-1.773-6.336-7.572-10.746-14.167-10.746-3.018 0-5.473-2.455-5.473-5.473v-.567c0-3.331 2.71-6.041 6.041-6.041h10.61c3.253 0 5.904 2.503 6.036 5.7.231 5.602-.772 11.269-3.047 17.127z"/><path d="m368.146 269.551h-10.61c-11.603 0-21.041 9.438-21.041 21.041v.567c0 11.214 9.063 20.352 20.251 20.472l3.195 11.982c1.185 4.444 5.209 7.482 9.747 7.482 3.426 0 6.658-1.75 8.514-4.707 7.881-12.563 11.468-24.585 10.968-36.755-.464-11.261-9.699-20.082-21.024-20.082zm2.988 37.828c-1.772-6.338-7.572-10.747-14.166-10.747-3.019 0-5.474-2.455-5.474-5.473v-.567c0-3.331 2.71-6.041 6.041-6.041h10.61c3.253 0 5.904 2.504 6.035 5.7.233 5.602-.77 11.27-3.046 17.128z"/><path d="m416.857 311.631 3.195 11.982c1.185 4.444 5.209 7.482 9.747 7.482 3.426 0 6.658-1.75 8.514-4.707 7.881-12.563 11.468-24.585 10.968-36.755-.464-11.262-9.698-20.083-21.023-20.083h-10.61c-11.603 0-21.041 9.438-21.041 21.041v.567c-.001 11.215 9.062 20.353 20.25 20.473zm-5.251-21.039c0-3.331 2.71-6.041 6.041-6.041h10.61c3.253 0 5.904 2.504 6.035 5.7.231 5.602-.771 11.27-3.047 17.128-1.772-6.338-7.572-10.747-14.166-10.747-3.019 0-5.474-2.455-5.474-5.473v-.567z"/><path d="m412.384 146.709c4.143 0 7.5-3.358 7.5-7.5s-3.357-7.5-7.5-7.5h-214.32c-4.142 0-7.5 3.358-7.5 7.5s3.358 7.5 7.5 7.5z"/><path d="m85.866 175.505c0 4.142 3.358 7.5 7.5 7.5h319.019c4.143 0 7.5-3.358 7.5-7.5s-3.357-7.5-7.5-7.5h-319.019c-4.142 0-7.5 3.358-7.5 7.5z"/><path d="m93.366 219.3h319.019c4.143 0 7.5-3.358 7.5-7.5s-3.357-7.5-7.5-7.5h-319.019c-4.142 0-7.5 3.358-7.5 7.5s3.358 7.5 7.5 7.5z"/><path d="m419.884 248.096c0-4.142-3.357-7.5-7.5-7.5h-319.018c-4.142 0-7.5 3.358-7.5 7.5s3.358 7.5 7.5 7.5h319.019c4.142 0 7.499-3.358 7.499-7.5z"/><path d="m93.366 276.892c-4.142 0-7.5 3.357-7.5 7.5s3.358 7.5 7.5 7.5h216.047c4.143 0 7.5-3.357 7.5-7.5s-3.357-7.5-7.5-7.5z"/><path d="m377.636 49.338h-199.791c-4.142 0-7.5 3.358-7.5 7.5s3.358 7.5 7.5 7.5h199.792c65.817 0 119.363 53.547 119.363 119.364v57.271c0 32.441-12.793 62.786-36.022 85.444-18.376 17.925-32.445 38.462-41.816 61.04l-22.334 53.813-17.371-41.855c-2.795-6.733-6.7-12.889-11.608-18.295-2.785-3.066-7.528-3.294-10.595-.511-3.066 2.784-3.295 7.527-.511 10.594 3.747 4.127 6.728 8.824 8.86 13.962l21.039 50.694c1.714 4.132 5.713 6.801 10.186 6.801s8.472-2.669 10.186-6.801l26.002-62.652c8.589-20.693 21.521-39.552 38.438-56.052 26.145-25.505 40.546-59.663 40.546-96.181v-57.271c0-74.089-60.276-134.365-134.364-134.365z"/><path d="m338.144 362.728c-5.616-1.586-11.409-2.391-17.218-2.391h-186.562c-65.818 0-119.364-53.546-119.364-119.363v-57.271c0-65.817 53.546-119.364 119.364-119.364h13.494c4.142 0 7.5-3.358 7.5-7.5s-3.358-7.5-7.5-7.5h-13.494c-74.089-.001-134.364 60.275-134.364 134.363v57.271c0 74.088 60.275 134.363 134.364 134.363h186.563c4.43 0 8.851.614 13.14 1.826 3.975 1.122 8.127-1.182 9.257-5.179 1.125-3.985-1.194-8.129-5.18-9.255z"/></g></svg>